<?xml version="1.0" encoding="UTF-8" standalone="no"?>
<svg
   xmlns:dc="http://purl.org/dc/elements/1.1/"
   xmlns:cc="http://creativecommons.org/ns#"
   xmlns:rdf="http://www.w3.org/1999/02/22-rdf-syntax-ns#"
   xmlns:svg="http://www.w3.org/2000/svg"
   xmlns="http://www.w3.org/2000/svg"
   xmlns:xlink="http://www.w3.org/1999/xlink"
   xmlns:sodipodi="http://sodipodi.sourceforge.net/DTD/sodipodi-0.dtd"
   xmlns:inkscape="http://www.inkscape.org/namespaces/inkscape"
   inkscape:export-ydpi="96"
   inkscape:export-xdpi="96"
   inkscape:export-filename="C:\Users\chris\Pictures\Artwork\Icons\Xyaneon.Bioinformatics.FASTA.png"
   sodipodi:docname="Xyaneon.Bioinformatics.FASTA.svg"
   inkscape:version="1.0 (4035a4fb49, 2020-05-01)"
   id="svg8"
   version="1.1"
   viewBox="0 0 64 64.000003"
   height="64"
   width="64">
  <title
     id="title4544">Xyaneon.Bioinformatics.FASTA</title>
  <defs
     id="defs2">
    <linearGradient
       inkscape:collect="always"
       id="linearGradient1682">
      <stop
         style="stop-color:#70c0c2;stop-opacity:1"
         offset="0"
         id="stop1678" />
      <stop
         style="stop-color:#459ea0;stop-opacity:1"
         offset="1"
         id="stop1680" />
    </linearGradient>
    <linearGradient
       inkscape:collect="always"
       id="linearGradient1676">
      <stop
         style="stop-color:#8d81b1;stop-opacity:1"
         offset="0"
         id="stop1672" />
      <stop
         style="stop-color:#63598c;stop-opacity:1"
         offset="1"
         id="stop1674" />
    </linearGradient>
    <linearGradient
       id="linearGradient1088"
       inkscape:collect="always">
      <stop
         id="stop1084"
         offset="0"
         style="stop-color:#8d81b1;stop-opacity:1" />
      <stop
         id="stop1086"
         offset="1"
         style="stop-color:#63598c;stop-opacity:1" />
    </linearGradient>
    <linearGradient
       id="linearGradient1072"
       inkscape:collect="always">
      <stop
         id="stop1068"
         offset="0"
         style="stop-color:#70c0c2;stop-opacity:1" />
      <stop
         id="stop1070"
         offset="1"
         style="stop-color:#459ea0;stop-opacity:1" />
    </linearGradient>
    <filter
       height="1.0671622"
       y="-0.033581088"
       width="1.0939193"
       x="-0.046959626"
       id="filter1048"
       style="color-interpolation-filters:sRGB"
       inkscape:collect="always">
      <feGaussianBlur
         id="feGaussianBlur1050"
         stdDeviation="0.78355872"
         inkscape:collect="always" />
    </filter>
    <filter
       height="1.0671622"
       y="-0.033581088"
       width="1.0939193"
       x="-0.046959626"
       id="filter1052"
       style="color-interpolation-filters:sRGB"
       inkscape:collect="always">
      <feGaussianBlur
         id="feGaussianBlur1054"
         stdDeviation="0.78355872"
         inkscape:collect="always" />
    </filter>
    <linearGradient
       gradientUnits="userSpaceOnUse"
       y2="1090.5197"
       x2="48"
       y1="1062.5197"
       x1="16"
       id="linearGradient1074"
       xlink:href="#linearGradient1682"
       inkscape:collect="always" />
    <linearGradient
       gradientUnits="userSpaceOnUse"
       y2="1090.5197"
       x2="48"
       y1="1118.5197"
       x1="16"
       id="linearGradient1082"
       xlink:href="#linearGradient1072"
       inkscape:collect="always" />
    <linearGradient
       gradientUnits="userSpaceOnUse"
       y2="1062.5197"
       x2="48"
       y1="1090.5197"
       x1="16"
       id="linearGradient1090"
       xlink:href="#linearGradient1088"
       inkscape:collect="always" />
    <linearGradient
       gradientUnits="userSpaceOnUse"
       y2="1118.5197"
       x2="48"
       y1="1090.5197"
       x1="16"
       id="linearGradient1098"
       xlink:href="#linearGradient1676"
       inkscape:collect="always" />
    <filter
       height="1.3418815"
       y="-0.17094073"
       width="1.0850366"
       x="-0.042518282"
       id="filter1634"
       style="color-interpolation-filters:sRGB"
       inkscape:collect="always">
      <feGaussianBlur
         id="feGaussianBlur1636"
         stdDeviation="0.28491191"
         inkscape:collect="always" />
    </filter>
    <filter
       height="1.3418815"
       y="-0.17094073"
       width="1.0850366"
       x="-0.042518282"
       id="filter1638"
       style="color-interpolation-filters:sRGB"
       inkscape:collect="always">
      <feGaussianBlur
         id="feGaussianBlur1640"
         stdDeviation="0.28491191"
         inkscape:collect="always" />
    </filter>
    <filter
       height="1.3418816"
       y="-0.17094078"
       width="1.048842"
       x="-0.024421021"
       id="filter1642"
       style="color-interpolation-filters:sRGB"
       inkscape:collect="always">
      <feGaussianBlur
         id="feGaussianBlur1644"
         stdDeviation="0.28491191"
         inkscape:collect="always" />
    </filter>
    <filter
       height="1.3418816"
       y="-0.17094078"
       width="1.048842"
       x="-0.024421021"
       id="filter1646"
       style="color-interpolation-filters:sRGB"
       inkscape:collect="always">
      <feGaussianBlur
         id="feGaussianBlur1648"
         stdDeviation="0.28491191"
         inkscape:collect="always" />
    </filter>
    <filter
       height="1.3418815"
       y="-0.17094073"
       width="1.0850366"
       x="-0.042518282"
       id="filter1650"
       style="color-interpolation-filters:sRGB"
       inkscape:collect="always">
      <feGaussianBlur
         id="feGaussianBlur1652"
         stdDeviation="0.28491191"
         inkscape:collect="always" />
    </filter>
    <filter
       height="1.3418816"
       y="-0.17094078"
       width="1.048842"
       x="-0.024421021"
       id="filter1654"
       style="color-interpolation-filters:sRGB"
       inkscape:collect="always">
      <feGaussianBlur
         id="feGaussianBlur1656"
         stdDeviation="0.28491191"
         inkscape:collect="always" />
    </filter>
    <filter
       height="1.3418815"
       y="-0.17094073"
       width="1.0850366"
       x="-0.042518282"
       id="filter1658"
       style="color-interpolation-filters:sRGB"
       inkscape:collect="always">
      <feGaussianBlur
         id="feGaussianBlur1660"
         stdDeviation="0.28491191"
         inkscape:collect="always" />
    </filter>
    <filter
       height="1.3418816"
       y="-0.17094078"
       width="1.048842"
       x="-0.024421021"
       id="filter1662"
       style="color-interpolation-filters:sRGB"
       inkscape:collect="always">
      <feGaussianBlur
         id="feGaussianBlur1664"
         stdDeviation="0.28491191"
         inkscape:collect="always" />
    </filter>
  </defs>
  <sodipodi:namedview
     inkscape:guide-bbox="true"
     showguides="true"
     inkscape:document-rotation="0"
     inkscape:snap-text-baseline="true"
     inkscape:snap-object-midpoints="true"
     inkscape:bbox-paths="true"
     inkscape:snap-bbox="false"
     inkscape:window-maximized="1"
     inkscape:window-y="-8"
     inkscape:window-x="-8"
     inkscape:window-height="1017"
     inkscape:window-width="1920"
     inkscape:pagecheckerboard="true"
     units="px"
     showgrid="true"
     inkscape:current-layer="layer1"
     inkscape:document-units="px"
     inkscape:cy="31.562834"
     inkscape:cx="32"
     inkscape:zoom="12.921875"
     inkscape:pageshadow="2"
     inkscape:pageopacity="0.0"
     borderopacity="1.0"
     bordercolor="#666666"
     pagecolor="#ffffff"
     id="base">
    <inkscape:grid
       empspacing="4"
       id="grid3713"
       type="xygrid" />
    <sodipodi:guide
       id="guide1056"
       orientation="0,-1"
       position="32,32.000002" />
    <sodipodi:guide
       id="guide1058"
       orientation="1,0"
       position="32,32.000002" />
    <sodipodi:guide
       id="guide1060"
       orientation="1,0"
       position="12,32.000002" />
    <sodipodi:guide
       id="guide1062"
       orientation="1,0"
       position="20,32.000003" />
    <sodipodi:guide
       id="guide1064"
       orientation="1,0"
       position="44,32.000003" />
    <sodipodi:guide
       id="guide1066"
       orientation="1,0"
       position="52,32.000003" />
  </sodipodi:namedview>
  <metadata
     id="metadata5">
    <rdf:RDF>
      <cc:Work
         rdf:about="">
        <dc:format>image/svg+xml</dc:format>
        <dc:type
           rdf:resource="http://purl.org/dc/dcmitype/StillImage" />
        <dc:title>Xyaneon.Bioinformatics.FASTA</dc:title>
      </cc:Work>
    </rdf:RDF>
  </metadata>
  <g
     sodipodi:insensitive="true"
     inkscape:label="Background shadow"
     id="layer2"
     inkscape:groupmode="layer">
    <path
       d="M 44,4 C 45,14 13,20 12,32 11,44 43,50 44,60 h 8 C 53,48 21,42 20,32 19,22 51,16 52,4 Z"
       style="opacity:0.809677;fill:#000000;fill-opacity:1;stroke:none;stroke-width:0.707107px;stroke-linecap:butt;stroke-linejoin:miter;stroke-opacity:1;filter:url(#filter1052)"
       id="path902" />
    <path
       d="M 12,4 C 11,16 43,22 44,32 45,42 13,48 12,60 h 8 C 19,50 51,44 52,32 53,20 21,14 20,4 Z"
       style="opacity:0.809677;fill:#000000;fill-opacity:1;stroke:none;stroke-width:0.707107px;stroke-linecap:butt;stroke-linejoin:miter;stroke-opacity:1;filter:url(#filter1048)"
       id="path904" />
  </g>
  <g
     style="display:inline"
     transform="translate(0,-1058.5197)"
     id="layer1"
     inkscape:groupmode="layer"
     inkscape:label="Layer 1">
    <path
       sodipodi:nodetypes="ccccc"
       id="path895"
       d="m 12,1090.5197 c 1,-12 33,-18 32,-28 h 8 c -1,12 -33,18 -32,28 z"
       style="fill:url(#linearGradient1090);fill-opacity:1;stroke:none;stroke-width:0.707107px;stroke-linecap:butt;stroke-linejoin:miter;stroke-opacity:1" />
    <path
       d="m 44.048828,1087.5197 a -1.9999995,-1.9999995 0 0 0 1.951172,-2 -1.9999995,-1.9999995 0 0 0 -2,-2 H 20 a -1.9999989,-1.9999989 0 0 0 -2,2 -1.9999989,-1.9999989 0 0 0 2,2 H 20.048828 44 a -1.9999995,-1.9999995 0 0 0 0.04883,0 z"
       style="opacity:0.37741935;fill:#000000;fill-opacity:1;stroke:none;stroke-width:2;stroke-opacity:0.790323;filter:url(#filter1662)"
       id="path1138" />
    <path
       id="path1126"
       style="opacity:1;fill:#1a1ae5;fill-opacity:1;stroke:none;stroke-width:2;stroke-opacity:0.790323"
       d="m 44.048828,1087.5197 a -1.9999995,-1.9999995 0 0 0 1.951172,-2 -1.9999995,-1.9999995 0 0 0 -2,-2 H 20 a -1.9999989,-1.9999989 0 0 0 -2,2 -1.9999989,-1.9999989 0 0 0 2,2 H 20.048828 44 a -1.9999995,-1.9999995 0 0 0 0.04883,0 z" />
    <path
       sodipodi:nodetypes="scscssccss"
       id="path1140"
       style="opacity:0.37741935;fill:#000000;fill-opacity:1;stroke:none;stroke-width:2;stroke-opacity:0.790323;filter:url(#filter1658)"
       d="m 44.048828,1087.5197 c 1.085455,-0.026 1.951496,-0.9142 1.951172,-2 0,-1.1046 -0.89543,-2 -2,-2 H 31.917775 c -1.10457,0 -2.000001,0.8954 -2,2 -10e-7,1.1046 0.89543,2 2,2 H 31.966603 44 c 0.01628,2e-4 0.03255,2e-4 0.04883,0 z" />
    <path
       d="m 44.048828,1087.5197 c 1.085455,-0.026 1.951496,-0.9142 1.951172,-2 0,-1.1046 -0.89543,-2 -2,-2 H 31.917775 c -1.10457,0 -2.000001,0.8954 -2,2 -10e-7,1.1046 0.89543,2 2,2 H 31.966603 44 c 0.01628,2e-4 0.03255,2e-4 0.04883,0 z"
       style="opacity:1;fill:#e5e51a;fill-opacity:1;stroke:none;stroke-width:2;stroke-opacity:0.790323"
       id="path1128"
       sodipodi:nodetypes="scscssccss" />
    <path
       d="m 19.951172,1064.5198 a 1.9999995,1.9999995 0 0 0 -1.951172,2 1.9999995,1.9999995 0 0 0 2,2 h 24 a 1.9999989,1.9999989 0 0 0 2,-2 1.9999989,1.9999989 0 0 0 -2,-2 H 43.951172 20 a 1.9999995,1.9999995 0 0 0 -0.04883,0 z"
       style="opacity:0.37741935;fill:#000000;fill-opacity:1;stroke:none;stroke-width:2;stroke-opacity:0.790323;filter:url(#filter1654)"
       id="path1142" />
    <path
       id="path1130"
       style="opacity:1;fill:#e51a1a;fill-opacity:1;stroke:none;stroke-width:2;stroke-opacity:0.790323"
       d="m 19.951172,1064.5198 a 1.9999995,1.9999995 0 0 0 -1.951172,2 1.9999995,1.9999995 0 0 0 2,2 h 24 a 1.9999989,1.9999989 0 0 0 2,-2 1.9999989,1.9999989 0 0 0 -2,-2 H 43.951172 20 a 1.9999995,1.9999995 0 0 0 -0.04883,0 z" />
    <path
       sodipodi:nodetypes="scscssccss"
       id="path1144"
       style="opacity:0.37741935;fill:#000000;fill-opacity:1;stroke:none;stroke-width:2;stroke-opacity:0.790323;filter:url(#filter1650)"
       d="m 19.951172,1064.5198 c -1.085455,0.026 -1.951496,0.9142 -1.951172,2 0,1.1046 0.89543,2 2,2 h 12.082225 c 1.10457,0 2.000001,-0.8954 2,-2 10e-7,-1.1046 -0.89543,-2 -2,-2 H 32.033397 20 c -0.01628,-2e-4 -0.03255,-2e-4 -0.04883,0 z" />
    <path
       d="m 19.951172,1064.5198 c -1.085455,0.026 -1.951496,0.9142 -1.951172,2 0,1.1046 0.89543,2 2,2 h 12.082225 c 1.10457,0 2.000001,-0.8954 2,-2 10e-7,-1.1046 -0.89543,-2 -2,-2 H 32.033397 20 c -0.01628,-2e-4 -0.03255,-2e-4 -0.04883,0 z"
       style="opacity:1;fill:#1ae51a;fill-opacity:1;stroke:none;stroke-width:2;stroke-opacity:0.790323"
       id="path1132"
       sodipodi:nodetypes="scscssccss" />
    <path
       id="path1146"
       style="opacity:0.37741935;fill:#000000;fill-opacity:1;stroke:none;stroke-width:2;stroke-opacity:0.790323;filter:url(#filter1646)"
       d="m 44.048828,1116.5196 a 1.9999995,1.9999995 0 0 0 1.951172,-2 1.9999995,1.9999995 0 0 0 -2,-2 H 20 a 1.9999989,1.9999989 0 0 0 -2,2 1.9999989,1.9999989 0 0 0 2,2 H 20.048828 44 a 1.9999995,1.9999995 0 0 0 0.04883,0 z" />
    <path
       style="fill:url(#linearGradient1082);fill-opacity:1.0;stroke:none;stroke-width:0.707107px;stroke-linecap:butt;stroke-linejoin:miter;stroke-opacity:1"
       d="m 12,1118.5197 c 1,-12 33,-18 32,-28 h 8 c -1,12 -33,18 -32,28 z"
       id="path897"
       sodipodi:nodetypes="ccccc" />
    <path
       id="path1148"
       style="opacity:0.37741935;fill:#000000;fill-opacity:1;stroke:none;stroke-width:2;stroke-opacity:0.790323;filter:url(#filter1642)"
       d="m 19.951172,1093.5198 a 1.9999995,1.9999995 0 0 0 -1.951172,2 1.9999995,1.9999995 0 0 0 2,2 h 24 a 1.9999989,1.9999989 0 0 0 2,-2 1.9999989,1.9999989 0 0 0 -2,-2 H 43.951172 20 a 1.9999995,1.9999995 0 0 0 -0.04883,0 z" />
    <path
       d="m 44.048828,1116.5196 a 1.9999995,1.9999995 0 0 0 1.951172,-2 1.9999995,1.9999995 0 0 0 -2,-2 H 20 a 1.9999989,1.9999989 0 0 0 -2,2 1.9999989,1.9999989 0 0 0 2,2 H 20.048828 44 a 1.9999995,1.9999995 0 0 0 0.04883,0 z"
       style="opacity:1;fill:#e5e51a;fill-opacity:1;stroke:none;stroke-width:2;stroke-opacity:0.790323"
       id="path1134" />
    <path
       d="m 19.951172,1093.5198 c -1.085455,0.026 -1.951496,0.9142 -1.951172,2 0,1.1046 0.89543,2 2,2 h 12.082225 c 1.10457,0 2.000001,-0.8954 2,-2 10e-7,-1.1046 -0.89543,-2 -2,-2 H 32.033397 20 c -0.01628,-2e-4 -0.03255,-2e-4 -0.04883,0 z"
       style="opacity:0.37741935;fill:#000000;fill-opacity:1;stroke:none;stroke-width:2;stroke-opacity:0.790323;filter:url(#filter1638)"
       id="path1150"
       sodipodi:nodetypes="scscssccss" />
    <path
       d="m 19.951172,1093.5198 a 1.9999995,1.9999995 0 0 0 -1.951172,2 1.9999995,1.9999995 0 0 0 2,2 h 24 a 1.9999989,1.9999989 0 0 0 2,-2 1.9999989,1.9999989 0 0 0 -2,-2 H 43.951172 20 a 1.9999995,1.9999995 0 0 0 -0.04883,0 z"
       style="opacity:1;fill:#1ae51a;fill-opacity:1;stroke:none;stroke-width:2;stroke-opacity:0.790323"
       id="rect1102" />
    <path
       d="m 44.048828,1116.5196 c 1.085455,-0.026 1.951496,-0.9142 1.951172,-2 0,-1.1046 -0.89543,-2 -2,-2 H 31.917775 c -1.10457,0 -2.000001,0.8954 -2,2 -10e-7,1.1046 0.89543,2 2,2 H 31.966603 44 c 0.01628,2e-4 0.03255,2e-4 0.04883,0 z"
       style="opacity:0.37741935;fill:#000000;fill-opacity:1;stroke:none;stroke-width:2;stroke-opacity:0.790323;filter:url(#filter1634)"
       id="path1152"
       sodipodi:nodetypes="scscssccss" />
    <path
       sodipodi:nodetypes="scscssccss"
       id="path1124"
       style="opacity:1;fill:#e51a1a;fill-opacity:1;stroke:none;stroke-width:2;stroke-opacity:0.790323"
       d="m 19.951172,1093.5198 c -1.085455,0.026 -1.951496,0.9142 -1.951172,2 0,1.1046 0.89543,2 2,2 h 12.082225 c 1.10457,0 2.000001,-0.8954 2,-2 10e-7,-1.1046 -0.89543,-2 -2,-2 H 32.033397 20 c -0.01628,-2e-4 -0.03255,-2e-4 -0.04883,0 z" />
    <path
       sodipodi:nodetypes="scscssccss"
       id="path1136"
       style="opacity:1;fill:#1a1ae5;fill-opacity:1;stroke:none;stroke-width:2;stroke-opacity:0.790323"
       d="m 44.048828,1116.5196 c 1.085455,-0.026 1.951496,-0.9142 1.951172,-2 0,-1.1046 -0.89543,-2 -2,-2 H 31.917775 c -1.10457,0 -2.000001,0.8954 -2,2 -10e-7,1.1046 0.89543,2 2,2 H 31.966603 44 c 0.01628,2e-4 0.03255,2e-4 0.04883,0 z" />
    <path
       style="fill:url(#linearGradient1098);fill-opacity:1;stroke:none;stroke-width:0.707107px;stroke-linecap:butt;stroke-linejoin:miter;stroke-opacity:1"
       d="m 12,1090.5197 c -1,13 31,19 32,28 h 8 c 1,-13 -31,-19 -32,-28 z"
       id="path899"
       sodipodi:nodetypes="ccccc" />
    <path
       sodipodi:nodetypes="ccccc"
       id="path893"
       d="m 12,1062.5197 c -1,13 31,19 32,28 h 8 c 1,-13 -31,-19 -32,-28 z"
       style="fill:url(#linearGradient1074);fill-opacity:1;stroke:none;stroke-width:0.707107px;stroke-linecap:butt;stroke-linejoin:miter;stroke-opacity:1" />
  </g>
</svg>
